# xmcd
#
# Track frame offsets:
#	183
#	17700
#	33793
#	47600
#	63248
#	77395
#	95283
#	109093
#	119868
#	134915
#	148998
#	170355
#
# Disc length: 2462 seconds
#
# Revision: 4
# Processed by: cddbd v1.5.2PL0 Copyright (c) Steve Scherf et al.
# Submitted via: audiograbber 1.83.01
#
DISCID=a3099c0c
DTITLE=Various Artist - Thanks For The Memories 1976
DYEAR=1990
DGENRE=Pop
TTITLE0=Nazareth - Love Hurts
TTITLE1=The Four Seasons - December, 1963
TTITLE2=Billy Ocean - Love Really Hurts Without You
TTITLE3=Fatback Band - Spanish Hustle
TTITLE4=Andrea True Connection - More More More
TTITLE5=Bonnie Tyler - Lost In France
TTITLE6=Brotherhood Of Man - Save Your Kisses For Me
TTITLE7=Sommerset - Another Lonely Night
TTITLE8=Glitter Band - People Like You And People Like
TTITLE9=The Marmelade - Falling Apart At The Seams
TTITLE10=The Chi-Ltes - You Don't Have To Go
TTITLE11=Climax Blues Band - Couldn't Get It Right
EXTD=
EXTT0=
EXTT1=
EXTT2=
EXTT3=
EXTT4=
EXTT5=
EXTT6=
EXTT7=
EXTT8=
EXTT9=
EXTT10=
EXTT11=
PLAYORDER=
